<svg width="63" height="45" viewBox="0 0 63 45" fill="none" xmlns="http://www.w3.org/2000/svg">
<g clip-path="url(#clip0_0_483)">
<path fill-rule="evenodd" clip-rule="evenodd" d="M9.86217 0C11.1384 0 11.8345 1.03846 11.2544 1.96154C11.0224 2.30769 10.6743 2.65385 10.4423 2.88462C0.000291646 13.8462 0.000291646 31.1538 10.4423 42.1154C10.5423 42.2645 10.6853 42.3922 10.825 42.517C11.0096 42.6818 11.1884 42.8414 11.2544 43.0385C11.3705 43.6154 11.3705 44.3077 11.0224 44.6538C10.7613 44.8269 10.3045 44.8053 9.84767 44.7837C9.69539 44.7764 9.54311 44.7692 9.39808 44.7692C9.26634 44.7692 9.17199 44.6576 9.07257 44.5401C8.99689 44.4506 8.91827 44.3576 8.81797 44.3077C-2.90026 32.4231 -2.90026 12.5769 8.81797 0.807692C9.16604 0.461538 9.63013 0.115385 9.86217 0ZM28.4258 25.1538H20.4202C19.7241 25.1538 18.7959 24.8077 18.5639 24.3461C18.3318 23.8846 18.6799 22.9615 19.144 22.3846C24.0169 15.8077 28.8898 9.34613 33.8788 2.76921L34.2269 2.42305C34.6909 1.73074 35.3871 1.38459 35.9672 1.84613C36.4313 2.19228 36.7793 2.99998 36.6633 3.5769C36.3153 6.23074 35.8512 8.88459 35.3871 11.5384C35.201 12.5255 35.0481 13.5455 34.8928 14.5809L34.8928 14.5811L34.8927 14.5815C34.7577 15.4825 34.6208 16.3951 34.4589 17.3077H39.9119H43.3926C44.6688 17.4231 45.1329 18.3461 44.4368 19.5L43.3926 20.8846C40.6081 24.4615 37.8526 28.0384 35.0971 31.6153L35.095 31.618L35.0939 31.6194L35.0926 31.6211C32.3385 35.1961 29.5845 38.7711 26.8014 42.3461C26.7434 42.4038 26.7144 42.4615 26.6854 42.5192C26.6564 42.5769 26.6274 42.6346 26.5694 42.6923C26.1053 43.3846 25.5252 43.7307 24.713 43.3846C23.9009 43.0384 23.9009 42.2307 24.1329 41.5384C24.481 40.2116 24.858 38.8559 25.2351 37.5002L25.2351 37.5C25.6122 36.1442 25.9893 34.7884 26.3374 33.4615C26.9175 30.5769 27.6136 27.9231 28.4258 25.1538ZM22.2766 22.5H29.818C31.2103 22.5 31.6744 23.1923 31.3263 24.4615C31.3021 24.5338 31.2779 24.601 31.2547 24.6653L31.2547 24.6653C31.1669 24.909 31.0943 25.1107 31.0943 25.3846L28.3097 35.4231C28.4257 35.4231 28.4258 35.423 28.5418 35.5384C32.4865 30.3461 36.5473 25.1538 40.7241 19.8461H33.5307C31.7904 19.8461 31.4423 19.3846 31.6744 17.6538C31.9064 16.1538 32.1675 14.625 32.4285 13.0962C32.6896 11.5673 32.9506 10.0385 33.1827 8.53844C33.1246 8.53844 33.0956 8.50959 33.0666 8.48075C33.0376 8.4519 33.0086 8.42305 32.9506 8.42305C30.8995 11.0551 28.9238 13.6872 26.916 16.3621C25.4031 18.3776 23.872 20.4175 22.2766 22.5ZM52.4432 2.76928C57.6642 8.30774 60.2167 14.8847 60.3327 22.5C60.3327 26.6539 59.5205 30.6924 57.7802 34.3847C56.3879 37.3847 54.5316 40.0385 52.2111 42.4616C51.283 43.3847 51.399 44.4231 52.3272 44.8847C53.1393 45.2308 53.6034 44.7693 54.1835 44.1924C65.9018 32.1924 65.9018 12.6924 54.1835 0.807743C54.1255 0.750052 54.0675 0.685149 54.0095 0.620247C53.8355 0.425534 53.6614 0.23082 53.4874 0.23082C53.0233 0.115436 52.3272 0.115436 52.0951 0.346205C51.7471 0.692359 51.7471 1.38467 51.7471 1.8462C51.7471 2.06202 51.9275 2.23299 52.1195 2.41503C52.2355 2.52497 52.3558 2.63895 52.4432 2.76928ZM7.89062 22.5001C8.00665 16.3847 10.095 11.077 14.1558 6.57701C14.2332 6.50008 14.3105 6.41034 14.3879 6.3206C14.5426 6.14111 14.6973 5.96162 14.852 5.8847C15.4321 5.76931 16.2442 5.65393 16.5923 5.8847C16.9403 6.23085 16.9403 7.15393 16.7083 7.61547C16.5148 8.00043 16.1777 8.34972 15.8368 8.703L15.8368 8.70301L15.8368 8.70301C15.5646 8.98506 15.29 9.26967 15.084 9.57701C8.70278 17.6539 9.16687 29.1924 16.2442 36.6924C16.3022 36.7501 16.3675 36.8078 16.4328 36.8655C16.6285 37.0385 16.8243 37.2116 16.8243 37.3847C16.9403 37.9616 16.9403 38.6539 16.7083 39.0001C16.3299 39.2823 15.7201 39.2577 15.2563 39.239C15.1512 39.2348 15.0537 39.2309 14.968 39.2309C14.8133 39.2309 14.6586 39.0257 14.5039 38.8206C14.4265 38.718 14.3492 38.6155 14.2718 38.5385C9.97902 34.0385 7.89062 28.6155 7.89062 22.5001ZM48.6141 38.7693C52.9069 34.2693 54.9953 28.8462 55.1113 22.6154C54.9953 16.3847 52.9069 10.9616 48.6141 6.57697C47.6859 5.65389 46.8737 5.42312 46.2936 6.11543C45.4815 6.92312 45.9455 7.61543 46.6417 8.30774C54.4152 16.6154 54.4152 28.6154 46.6417 37.0385C46.0616 37.7308 45.5975 38.4231 46.4096 39.2308C47.2218 39.9231 47.9179 39.4616 48.6141 38.7693Z" fill="url(#paint0_linear_0_483)"/>
</g>
<defs>
<linearGradient id="paint0_linear_0_483" x1="0.0292967" y1="34.8417" x2="62.9722" y2="34.8417" gradientUnits="userSpaceOnUse">
<stop stop-color="#FF9900"/>
<stop offset="1" stop-color="#CC2500"/>
</linearGradient>
<clipPath id="clip0_0_483">
<rect width="63" height="45" fill="white"/>
</clipPath>
</defs>
</svg>
