<svg width="53" height="61" viewBox="0 0 53 61" fill="none" xmlns="http://www.w3.org/2000/svg">
<path d="M3.45633 30.7498C3.45633 28.3631 3.2628 26.0041 3.48398 23.6729C4.36869 14.5979 9.0411 8.13152 17.2524 4.24617C17.9435 3.91314 18.4136 3.66337 18.5794 2.77529C18.8836 1.11014 20.2106 0.0832973 21.9524 0.0555448C24.9383 3.97647e-05 27.9519 3.97647e-05 30.9378 0.0555448C32.7625 0.0832973 33.8961 1.13789 34.4214 2.8863C34.5596 3.35809 34.9743 3.91314 35.4167 4.10741C44.5956 8.3813 49.2404 15.6525 49.5998 25.7266C49.6551 27.3085 49.6274 28.8626 49.6551 30.4445C49.6551 30.5278 49.7104 30.611 49.8486 30.8608C50.4016 30.8608 51.0927 30.6943 51.6457 30.9163C52.171 31.1383 52.558 31.7212 53.0281 32.1652C52.558 32.5815 52.1433 33.081 51.618 33.3863C51.3416 33.5528 50.8992 33.4418 50.5398 33.4418C34.5043 33.4418 18.4965 33.4418 2.46102 33.4418C1.46572 33.4418 0.055703 33.7748 0.000408262 32.1929C-0.0272391 30.6388 1.35513 30.9163 2.37808 30.8608C2.65456 30.8331 2.93103 30.7776 3.45633 30.7498ZM46.918 30.7776C48.4109 17.9837 42.2732 9.5469 34.4767 6.68839C34.4767 7.3267 34.4767 7.9095 34.4767 8.52006C34.4767 9.43589 34.1173 10.102 33.1496 10.0742C32.2372 10.0464 31.9608 9.38039 31.9608 8.52006C31.9884 6.99367 31.9608 5.46728 31.9608 3.9409C31.9608 3.02506 31.5461 2.55327 30.6337 2.55327C27.869 2.55327 25.1042 2.55327 22.3395 2.55327C21.3442 2.55327 20.9295 3.02506 20.9571 3.9964C20.9848 5.43953 21.0677 6.88266 20.9018 8.29804C20.8465 8.79758 20.1 9.18612 19.6853 9.65791C19.2706 9.24162 18.7177 8.88084 18.4965 8.3813C18.303 7.88175 18.4412 7.24344 18.4412 6.60514C8.29462 10.879 4.70046 20.9254 6.11048 30.7776C19.6853 30.7776 33.2602 30.7776 46.918 30.7776Z" fill="url(#paint0_linear_0_499)"/>
<path d="M51.0093 37.5769C51.0093 41.1015 49.5993 42.4891 46.0604 42.5169C45.8392 42.5169 45.5628 42.4336 45.3692 42.5446C44.8439 42.8221 44.0698 43.0442 43.8763 43.4882C43.6827 43.9322 43.9316 44.7648 44.2633 45.1811C47.4704 48.9554 47.4704 49.9823 43.9869 53.5069C43.5445 53.9786 43.0745 54.4227 42.6321 54.8945C40.4203 57.1147 38.2915 57.0869 36.0521 54.8667C35.7479 54.5614 35.4715 54.2562 35.1673 54.0064C34.1167 53.2016 32.9279 53.7011 32.7897 55.061C32.7344 55.6438 32.7897 56.2543 32.762 56.8649C32.6514 59.3349 31.0755 60.9168 28.6426 61C27.2049 61.0555 25.7949 61.0278 24.3572 61C21.8966 60.9445 20.3207 59.3626 20.1825 56.9204C20.1548 56.2821 20.2101 55.616 20.1548 54.9777C20.0166 53.7289 18.8278 53.2016 17.8324 53.9786C17.3348 54.3672 16.9201 54.8945 16.4501 55.3108C14.7359 56.8927 12.4412 56.9204 10.7271 55.3108C9.64883 54.2839 8.62587 53.2571 7.60292 52.1747C5.91643 50.3708 5.94408 48.1506 7.63057 46.3467C8.01763 45.9304 8.51529 45.6251 8.76411 45.1533C9.01294 44.6816 9.26177 43.9877 9.09588 43.5715C8.93 43.1274 8.26646 42.7666 7.74116 42.6279C7.07762 42.4614 6.35879 42.6001 5.66761 42.5446C3.81523 42.4058 2.43287 41.2402 2.1011 39.4363C1.93521 38.4372 1.85227 37.3826 2.01816 36.4113C2.1011 35.884 2.79228 35.4677 3.23464 35.0237C3.64935 35.4955 4.25759 35.884 4.42348 36.4113C4.7276 37.4381 4.42348 38.909 5.03172 39.5196C5.63996 40.1301 7.07762 39.9081 8.12822 40.0746C9.70412 40.2967 10.893 41.1015 11.4736 42.6001C12.1094 44.1543 11.7777 45.5974 10.6718 46.8462C8.37705 49.455 8.37705 49.455 10.8377 51.925C10.893 51.9805 10.9759 52.0637 11.0312 52.1192C13.4365 54.5337 13.4365 54.5337 15.8971 52.258C17.1136 51.1201 18.5236 50.7316 20.0995 51.3699C21.7031 52.0082 22.5601 53.2293 22.6707 54.9777C22.8919 58.4746 22.8919 58.4745 26.3755 58.4745C26.4584 58.4745 26.569 58.4745 26.652 58.4745C30.0526 58.4745 30.0526 58.4746 30.1908 55.1165C30.2738 53.3681 31.0479 52.0915 32.6514 51.4254C34.3103 50.7316 35.7756 51.1201 37.075 52.369C39.3974 54.5892 39.3974 54.5892 41.6368 52.3412C41.6645 52.3135 41.6921 52.2857 41.7474 52.2302C44.4016 49.566 44.3739 49.566 42.0515 46.652C41.0562 45.4031 40.8074 43.9877 41.4709 42.4891C42.1898 40.9072 43.4616 40.1301 45.1757 40.0469C48.2998 39.9081 48.3275 39.9081 48.4381 36.6888C48.4657 35.8285 48.6593 35.0514 49.6822 35.0514C50.6775 35.0514 50.954 35.8008 50.9816 36.6888C51.0369 36.9386 51.0093 37.2439 51.0093 37.5769Z" fill="url(#paint1_linear_0_499)"/>
<path d="M26.4864 46.0414C21.3717 46.0414 17.0034 41.9618 16.7546 36.9664C16.6993 36.0505 16.6716 35.0514 17.8881 34.9682C19.0493 34.8849 19.2152 35.8285 19.2981 36.7721C19.5746 40.3522 22.3946 43.2107 25.8782 43.4882C29.4447 43.7935 32.7071 41.4068 33.5365 37.8822C33.6747 37.3549 33.5089 36.7166 33.7577 36.2448C34.0342 35.7175 34.6148 35.3567 35.0571 34.9404C35.4442 35.4122 36.1354 35.884 36.163 36.3836C36.4948 41.4345 31.7947 46.0414 26.4864 46.0414Z" fill="url(#paint2_linear_0_499)"/>
<path d="M26.5416 24.8941C29.804 24.8941 33.0664 24.8941 36.3564 24.8941C37.2964 24.8941 38.3747 24.8663 38.347 26.1985C38.3194 27.3918 37.3517 27.4473 36.4394 27.4473C29.804 27.4473 23.1686 27.4473 16.5609 27.4473C15.7038 27.4473 14.7915 27.4196 14.6532 26.3372C14.515 25.2549 15.2615 24.9218 16.2291 24.9218C19.6298 24.8941 23.0857 24.8941 26.5416 24.8941Z" fill="url(#paint3_linear_0_499)"/>
<defs>
<linearGradient id="paint0_linear_0_499" x1="-1.52039e-07" y1="25.9216" x2="53.0281" y2="25.9216" gradientUnits="userSpaceOnUse">
<stop stop-color="#FF9900"/>
<stop offset="1" stop-color="#CC2500"/>
</linearGradient>
<linearGradient id="paint1_linear_0_499" x1="1.92773" y1="55.1592" x2="51.0162" y2="55.1592" gradientUnits="userSpaceOnUse">
<stop stop-color="#FF9900"/>
<stop offset="1" stop-color="#CC2500"/>
</linearGradient>
<linearGradient id="paint2_linear_0_499" x1="16.7344" y1="43.5348" x2="36.1796" y2="43.5348" gradientUnits="userSpaceOnUse">
<stop stop-color="#FF9900"/>
<stop offset="1" stop-color="#CC2500"/>
</linearGradient>
<linearGradient id="paint3_linear_0_499" x1="14.6367" y1="26.8708" x2="38.3476" y2="26.8708" gradientUnits="userSpaceOnUse">
<stop stop-color="#FF9900"/>
<stop offset="1" stop-color="#CC2500"/>
</linearGradient>
</defs>
</svg>
