<svg width="42" height="56" viewBox="0 0 42 56" fill="none" xmlns="http://www.w3.org/2000/svg">
<g clip-path="url(#clip0_0_518)">
<path d="M0.89243 39.0032C0.89243 37.2458 0.971119 35.4885 0.866201 33.7573C0.787512 32.6294 0.39407 31.5016 0.262922 30.3737C0.184233 29.5344 0.289151 28.6688 0.39407 27.8557C0.498988 27.1475 0.866201 26.4393 0.866201 25.7573C0.91866 20.7213 0.91866 15.7114 0.89243 10.6754C0.89243 10.1245 0.787512 9.54749 0.551447 9.04913C-0.287898 7.26552 -0.15675 5.71798 1.49571 4.51142C2.88587 3.48847 4.45964 2.6229 6.08587 2.07208C11.5678 0.236013 17.2859 -0.1312 23.0301 0.0786358C27.2269 0.209783 31.4236 0.629455 35.4105 2.04585C36.958 2.59667 38.4793 3.35732 39.817 4.27536C41.7056 5.58683 41.9941 7.68519 40.8924 9.2065C40.6301 9.54749 40.6039 10.1245 40.6039 10.5704C40.5777 15.7376 40.3154 20.9049 40.7351 26.0458C40.9187 28.2491 40.9449 30.295 40.7351 32.4983C40.3154 36.7737 40.6039 41.154 40.6301 45.4819C40.6301 45.9803 40.7613 46.5049 40.9974 46.977C41.8367 48.7344 41.7056 50.3606 40.0793 51.5147C38.4531 52.6426 36.6433 53.6131 34.7547 54.1901C29.4039 55.8688 23.8695 56.1835 18.2826 55.9475C14.1383 55.7901 9.99407 55.3704 6.05965 53.9278C4.40719 53.3245 2.80719 52.4327 1.39079 51.3835C-0.18298 50.2032 -0.261668 48.7081 0.577676 46.9245C0.787512 46.4786 0.89243 45.9278 0.89243 45.4294C0.89243 43.2786 0.866201 41.1278 0.89243 39.0032C0.866201 39.0032 0.866201 39.0032 0.89243 39.0032ZM3.1744 11.5672C3.1744 16.6295 3.1744 21.6393 3.1744 26.6754C3.1744 27.1737 3.09571 27.7245 2.85964 28.1704C2.12522 29.5081 2.17768 29.9016 3.51538 30.636C4.11866 30.977 4.7744 31.2917 5.45637 31.4229C8.55145 31.9475 11.6465 32.3934 14.7678 32.7868C15.0826 32.8131 15.581 32.3409 15.7908 31.9737C17.076 29.6393 18.2039 27.2524 19.5416 24.9442C20.3547 23.554 21.2465 23.554 22.0596 24.9967C23.3711 27.3049 24.5252 29.6917 25.7842 32.0262C25.9678 32.3934 26.4924 32.8393 26.8334 32.7868C29.4039 32.5508 31.9744 32.3147 34.4924 31.8426C35.8301 31.6065 37.1416 31.0032 38.4006 30.3999C39.2662 29.9803 39.4761 29.2721 38.8465 28.354C38.5318 27.9081 38.4006 27.2262 38.4006 26.6491C38.3744 22.059 38.3744 17.4688 38.3744 12.8786C38.3744 12.4327 38.322 11.9868 38.322 11.6458C26.5449 15.5803 14.9515 15.6065 3.1744 11.5672ZM14.9515 35.3573C10.9646 34.7016 7.10883 34.0458 3.1744 33.3901C3.1744 33.5999 3.1744 34.0196 3.1744 34.4655C3.1744 38.3475 3.20063 42.2557 3.14817 46.1376C3.14817 46.7147 2.96456 47.3442 2.64981 47.8163C2.09899 48.6557 2.20391 49.3639 2.96456 49.8622C3.98751 50.518 5.03669 51.2786 6.16456 51.5672C9.54817 52.354 12.958 53.2196 16.4203 53.5344C22.7678 54.1114 29.0892 53.7704 35.1744 51.6458C36.3547 51.2262 37.4826 50.5967 38.4793 49.8622C38.8728 49.5737 38.9777 48.6819 38.9252 48.0786C38.8728 47.2655 38.3482 46.4524 38.3482 45.6393C38.2957 41.495 38.322 37.3508 38.322 33.4163C34.3613 34.0721 30.4793 34.7278 26.5711 35.3835C26.3088 39.3704 24.1318 41.8098 20.7482 41.836C17.3908 41.7835 15.1613 39.318 14.9515 35.3573ZM20.7482 12.5114C24.0006 12.1704 27.2793 12.0131 30.4793 11.3836C32.9974 10.8852 35.5154 9.96716 37.8498 8.89175C39.7383 8.02618 39.6859 6.66224 37.8498 5.61306C36.5383 4.87863 35.0957 4.24913 33.6531 3.85568C25.9416 1.78355 18.099 1.70486 10.3088 3.27864C7.92194 3.777 5.58751 4.74749 3.358 5.8229C1.83669 6.55732 1.88915 7.81634 3.358 8.73437C4.45964 9.41634 5.6662 9.96716 6.89899 10.3868C11.4105 11.8819 16.0531 12.2754 20.7482 12.5114ZM20.7482 27.0426C19.0695 29.8229 17.5744 32.3672 17.2859 35.436C17.076 37.8229 18.5974 39.554 20.7744 39.554C22.9777 39.5278 24.4465 37.7967 24.2105 35.3835C23.9219 32.3409 22.4269 29.7704 20.7482 27.0426Z" fill="white"/>
<path d="M12.5638 8.73446C11.6458 8.44594 10.754 8.28856 9.94086 7.89512C9.07529 7.44922 9.10152 6.74102 9.8884 6.16397C11.095 5.27217 14.0589 5.27217 15.2392 6.16397C15.9999 6.71479 16.0261 7.47545 15.1605 7.89512C14.3999 8.28856 13.4818 8.47217 12.5638 8.73446Z" fill="white"/>
</g>
<defs>
<clipPath id="clip0_0_518">
<rect width="41.5213" height="56" fill="white"/>
</clipPath>
</defs>
</svg>
