<svg width="53" height="52" viewBox="0 0 53 52" fill="none" xmlns="http://www.w3.org/2000/svg">
<g clip-path="url(#clip0_0_515)">
<path d="M26.4995 51.8478C18.2076 51.8478 9.91568 51.8478 1.62374 51.8478C0.170514 51.8478 -0.0859375 51.6789 -0.0859375 50.2434C-0.0859375 48.1323 -0.0859375 46.1057 -0.0859375 43.9947C-0.0859375 43.1502 0.170514 42.6436 0.768901 42.1369C12.8221 32.1727 24.8754 22.2084 36.9286 12.1597C41.5447 8.35983 46.1608 4.55991 50.6915 0.759984C50.8624 0.591099 51.1189 0.422214 51.3754 0.253328C52.2302 -0.253328 52.8286 0 52.9141 1.01331C52.9141 1.26664 52.9141 1.51997 52.9141 1.68885C52.9141 17.8174 52.9141 33.946 52.9141 50.0745C52.9141 51.6789 52.7431 51.8478 51.1189 51.8478C42.9979 51.8478 34.7915 51.8478 26.4995 51.8478ZM47.6141 38.1681C47.6141 29.3016 47.6141 20.4351 47.6141 11.4842C42.5705 15.6219 37.6979 19.6752 32.9108 23.644C37.8689 28.5416 42.7415 33.3549 47.6141 38.1681ZM51.2044 2.78661C50.777 3.12438 50.606 3.20882 50.5205 3.37771C34.6205 16.5508 18.7205 29.7238 2.82051 42.8125C1.79471 43.6569 1.70922 44.5013 1.88019 45.5991C2.906 45.8524 3.67535 45.5146 4.44471 44.9235C7.26568 42.5591 10.0866 40.1947 12.9076 37.9148C25.4737 27.5283 38.0399 17.1419 50.5205 6.67097C50.777 6.41765 51.1189 6.07988 51.1189 5.82655C51.2899 4.89768 51.2044 3.96881 51.2044 2.78661ZM1.88019 49.9901C18.3786 49.9901 34.7915 49.9901 51.2044 49.9901C51.2044 49.1457 51.2044 48.3857 51.2044 47.5412C34.706 47.5412 18.3786 47.5412 1.88019 47.5412C1.88019 48.3857 1.88019 49.1457 1.88019 49.9901ZM25.6447 29.6394C20.6012 33.8615 15.6431 37.9148 10.5995 42.1369C15.7286 42.1369 20.6866 42.1369 25.6447 42.1369C25.6447 38.0837 25.6447 34.0304 25.6447 29.6394ZM43.5108 42.2214C39.3221 38.0837 35.1334 33.946 31.0302 29.8927C31.0302 33.8615 31.0302 38.0837 31.0302 42.2214C35.3044 42.2214 39.4931 42.2214 43.5108 42.2214ZM51.2044 43.9947C50.6915 43.9947 50.2641 43.9947 49.8366 43.9947C36.4157 43.9947 22.9947 43.9947 9.57374 43.9947C8.12051 43.9947 7.43664 44.8391 6.41084 45.6835C21.5415 45.6835 36.3302 45.6835 51.2044 45.6835C51.2044 45.0924 51.2044 44.5858 51.2044 43.9947ZM51.2044 42.2214C51.2044 30.9905 51.2044 19.844 51.2044 8.61316C50.0931 9.2887 49.4947 9.8798 49.4947 11.3153C49.5802 21.1951 49.4947 31.1594 49.4947 41.0392C49.4947 41.4614 49.4947 41.7991 49.4947 42.2214C50.0931 42.2214 50.606 42.2214 51.2044 42.2214ZM47.5286 42.3902C47.8705 41.2925 47.5286 40.7858 46.9302 40.1947C41.9721 35.2971 37.0141 30.3994 32.056 25.5861C31.7995 25.3328 31.5431 25.1639 31.2866 24.9106C30.8592 25.3328 30.4318 25.6706 30.0044 26.0084C30.0899 26.1772 30.1754 26.2617 30.1754 26.2617C35.4754 31.4971 40.6899 36.6481 45.9899 41.8836C46.4173 42.1369 47.0157 42.2214 47.5286 42.3902ZM28.8931 27.1061C27.6963 27.6972 27.3544 28.4572 27.4399 29.5549C27.5254 33.4393 27.4399 37.2392 27.4399 41.1236C27.4399 41.4614 27.4399 41.7991 27.5254 42.1369C28.1237 42.1369 28.6366 42.1369 29.1495 42.1369C29.1495 41.968 29.235 41.8836 29.235 41.7991C29.235 37.2392 29.235 32.5949 29.235 28.035C29.1495 27.7817 28.9786 27.4439 28.8931 27.1061Z" fill="url(#paint0_linear_0_515)"/>
</g>
<defs>
<linearGradient id="paint0_linear_0_515" x1="-0.0859377" y1="40.1403" x2="52.9141" y2="40.1403" gradientUnits="userSpaceOnUse">
<stop stop-color="#FF9900"/>
<stop offset="1" stop-color="#CC2500"/>
</linearGradient>
<clipPath id="clip0_0_515">
<rect width="53" height="51.8478" fill="white"/>
</clipPath>
</defs>
</svg>
