<svg width="60" height="60" viewBox="0 0 60 60" fill="none" xmlns="http://www.w3.org/2000/svg">
<g clip-path="url(#clip0_0_494)">
<path d="M6.8223 28.7003C6.06418 29.3502 5.52266 29.7834 4.98115 30.3249C4.22302 31.083 3.5732 31.083 2.81508 30.3249C2.16526 29.5668 1.40714 28.9169 0.649016 28.1588C-0.325714 27.1841 -0.325714 26.8592 0.649016 25.9928C3.89811 23.0686 7.25551 20.0361 10.5046 17.1119C16.5696 11.6967 22.5263 6.28156 28.5913 0.866402C29.8909 -0.324933 29.8909 -0.324933 31.2988 0.866402C34.6562 3.89889 37.9053 6.82308 41.4793 10.0722C41.4793 8.44763 41.4793 6.93138 41.4793 5.52344C41.4793 4.0072 41.6959 3.79059 43.2122 3.79059C46.0281 3.79059 48.7357 3.79059 51.5515 3.79059C52.7429 3.79059 53.0678 4.2238 53.0678 5.41514C53.0678 10.0722 53.0678 14.7292 53.0678 19.3863C53.0678 20.1444 53.2844 20.6859 53.9342 21.2274C55.7754 22.7437 57.5082 24.3682 59.2411 25.9928C59.9992 26.6426 59.9992 27.2924 59.2411 28.0505C58.483 28.8086 57.7248 29.5668 56.9667 30.3249C56.3169 31.083 55.6671 30.9747 55.0172 30.3249C54.4757 29.7834 53.9342 29.3502 53.0678 28.592C53.0678 29.2418 53.0678 29.6751 53.0678 30.1083C53.0678 39.4224 53.0678 48.6281 53.0678 57.9422C53.0678 59.7834 52.9595 59.8917 51.2266 59.8917C37.0389 59.8917 22.7429 59.8917 8.55515 59.8917C6.714 59.8917 6.714 59.7834 6.714 57.9422C6.714 48.7364 6.714 39.5307 6.714 30.2166C6.8223 29.8917 6.8223 29.4585 6.8223 28.7003ZM51.3349 57.9422C51.3349 47.7617 51.3349 37.6895 51.3349 27.6173C51.3349 27.1841 51.01 26.6426 50.5768 26.3177C44.945 21.2274 39.205 16.1372 33.4649 11.1552C32.3819 10.1805 31.1905 9.09745 29.9992 8.12272C29.6743 8.33933 29.4577 8.55593 29.1328 8.77254C22.6346 14.6209 15.9198 20.5776 9.31328 26.426C8.98837 26.7509 8.77176 27.4007 8.77176 27.8339C8.77176 34.0072 8.77176 40.0722 8.77176 46.2455C8.77176 46.4621 8.77176 46.787 8.77176 47.3285C11.0461 45.4873 13.2122 43.9711 15.27 42.2382C16.0281 41.5884 16.6779 41.1552 17.436 41.9133C18.9523 40.3971 20.3602 38.9891 21.8765 37.5812C21.1183 36.8231 21.4432 36.2816 22.2014 35.6317C22.9595 34.8736 23.7176 34.1155 24.4757 33.3574C25.6671 32.0577 25.6671 30.5415 24.2591 29.4585C23.1761 28.592 21.8765 27.9422 20.6851 27.4007C19.6021 26.9675 18.4107 26.7509 17.3277 26.426C16.353 26.1011 15.7032 25.3429 15.7032 24.2599C15.5949 23.1769 16.1364 22.3104 17.1111 21.9855C17.9775 21.6606 18.9523 21.3357 19.927 21.3357C26.6418 21.3357 32.4902 23.6101 37.0389 28.7003C38.2302 30 39.0967 31.083 38.8801 32.9242C38.6635 34.9819 39.6382 35.74 41.8042 35.8483C42.4541 35.8483 43.2122 36.065 43.6454 36.3899C44.8367 37.3646 45.9198 38.5559 47.0028 39.639C47.6526 40.2888 47.6526 40.8303 47.0028 41.4801C44.8367 43.5379 42.779 45.7039 40.7212 47.7617C40.0714 48.4115 39.5299 48.4115 38.8801 47.7617C38.1219 46.8953 37.2555 46.0289 36.3891 45.2707C35.4144 44.4043 34.8728 43.4296 34.9811 42.0216C35.0894 40.3971 33.8981 39.4224 32.2736 39.5307C30.8656 39.639 29.6743 40.2888 28.6996 41.3718C27.9414 42.1299 27.2916 42.7798 26.3169 42.0216C24.8006 43.5379 23.3927 44.8375 21.9848 46.3538C22.8512 47.0036 22.418 47.6534 21.8765 48.3032C19.927 50.5776 18.0858 52.852 16.2447 55.1263C15.4866 55.9928 14.8367 56.8592 14.0786 57.8339C26.4252 57.9422 38.7718 57.9422 51.3349 57.9422ZM29.9992 2.27434C20.7934 10.6137 11.5876 18.8447 2.49017 27.0758C3.03169 27.6173 3.4649 28.1588 3.89811 28.7003C4.54793 28.0505 5.19775 27.6173 5.73927 27.0758C13.4288 20.2527 21.1183 13.4296 28.8079 6.60647C29.9992 5.52344 30.1075 5.52344 31.2988 6.60647C36.8223 11.4801 42.3458 16.3538 47.8692 21.3357C50.5768 23.7184 53.3927 26.2094 56.1003 28.592C56.6418 28.0505 57.075 27.6173 57.6165 27.0758C48.4108 18.8447 39.3133 10.6137 29.9992 2.27434ZM39.9631 37.6895C37.5804 36.3899 36.714 35.4151 36.8223 33.4657C36.9306 31.8411 36.3891 30.6498 35.1978 29.7834C34.9811 29.5668 34.7645 29.3502 34.5479 29.2418C30.5407 24.9097 25.3422 23.3935 19.6021 23.3935C18.844 23.3935 18.0858 23.7184 17.3277 23.935C17.3277 24.1516 17.3277 24.2599 17.3277 24.4765C17.8692 24.6931 18.5191 24.9097 19.0606 25.018C21.4432 25.6678 23.7176 26.426 25.4505 28.1588C27.5082 30.1083 27.5082 32.8159 25.5588 34.7653C24.9089 35.4151 24.1508 36.065 23.6093 36.6065C25.0172 37.7978 25.992 38.9891 27.075 40.0722C30.3241 36.9314 34.9811 36.4982 36.714 40.9386C37.9053 39.8556 38.8801 38.7725 39.9631 37.6895ZM8.77176 57.9422C10.3963 58.3754 11.4793 57.9422 12.4541 56.6426C14.1869 54.3682 16.1364 52.2021 17.9775 49.9278C18.6274 49.1696 19.2772 48.3032 19.8187 47.6534C18.5191 46.3538 17.436 45.2707 16.2447 43.9711C13.9703 45.8122 11.5876 47.6534 9.20497 49.4946C8.98837 49.7112 8.77176 50.0361 8.77176 50.361C8.66346 52.852 8.77176 55.3429 8.77176 57.9422ZM43.5371 5.84835C43.5371 7.03969 43.6454 8.23102 43.5371 9.42236C43.3205 11.2635 43.9703 12.4548 45.3783 13.5379C47.3277 15.1624 49.1689 16.8953 51.2266 18.7364C51.2266 14.296 51.2266 10.0722 51.2266 5.84835C48.7357 5.84835 46.2447 5.84835 43.5371 5.84835ZM37.3638 43.5379C38.1219 44.296 38.9884 45.0541 39.7465 45.7039C41.4793 43.9711 43.2122 42.2382 44.8367 40.6137C44.1869 39.8556 43.4288 39.0974 42.6707 38.3393C40.8295 40.0722 39.0967 41.805 37.3638 43.5379ZM23.3927 39.3141C21.9848 40.722 20.4685 42.2382 19.1689 43.5379C19.4938 43.9711 19.927 44.5126 20.2519 44.8375C21.7682 43.3213 23.1761 41.9133 24.6923 40.3971C24.2591 40.0722 23.7176 39.7473 23.3927 39.3141Z" fill="url(#paint0_linear_0_494)"/>
</g>
<defs>
<linearGradient id="paint0_linear_0_494" x1="-0.0820314" y1="46.3616" x2="59.8097" y2="46.3616" gradientUnits="userSpaceOnUse">
<stop stop-color="#FF9900"/>
<stop offset="1" stop-color="#CC2500"/>
</linearGradient>
<clipPath id="clip0_0_494">
<rect width="60" height="60" fill="white"/>
</clipPath>
</defs>
</svg>
