<svg width="49" height="47" viewBox="0 0 49 47" fill="none" xmlns="http://www.w3.org/2000/svg">
<path d="M2.69227 47.3298L2.89167 30.2381L9.65348 26.9744L9.4907 21.1657C9.4907 20.3909 9.05201 19.7479 8.4709 19.5542L8.31788 6.05013C8.31402 5.77719 8.20244 5.51684 8.00745 5.32582C7.81246 5.13479 7.54988 5.02859 7.27692 5.03033H3.34013C3.06718 5.02837 2.80456 5.13454 2.60965 5.32563C2.41475 5.51673 2.30341 5.7772 2.29997 6.05013L2.14696 19.5542C1.56503 19.7479 1.13693 20.3909 1.12716 21.1657L0.44268 47.3298H2.69227Z" fill="#101633"/>
<path d="M31.5488 47.3234V19.9694L38.6475 23.601L42.7479 25.7016L45.7569 27.2521L49.8475 29.343L55.3649 32.1688L55.3347 34.9637L55.1939 47.3234H56.5149L56.6508 35.6368L56.7013 31.363L49.8475 27.8544L45.7569 25.7529L42.7479 24.213L38.6475 22.1116L31.5488 18.4808L30.2742 17.828L29.9983 17.9607L9.28238 27.9667L3.54038 30.7404L3.35075 47.3234H31.5488Z" fill="#101633"/>
<path d="M23.0112 20.4716L22.8737 16.8139C22.8655 16.0432 22.4342 15.4002 21.8522 15.2073L21.6968 1.70406C21.6929 1.43088 21.5818 1.17019 21.3873 0.9783C21.1928 0.786414 20.9306 0.678747 20.6574 0.67856H16.7207C16.4474 0.678747 16.1853 0.786414 15.9908 0.9783C15.7963 1.17019 15.6852 1.43088 15.6813 1.70406L15.5259 15.2073C14.9439 15.4002 14.5126 16.0432 14.5044 16.8139L14.2082 24.7233L23.0112 20.4716Z" fill="#101633"/>
<path d="M55.5751 47.3276L55.7159 34.9678L55.7461 32.1729L50.2287 29.3471L46.1381 27.2562L43.1291 25.7057L39.0287 23.6051L31.93 19.9735V47.3276H55.5751Z" fill="url(#paint0_linear_1_32)"/>
<path d="M39.0289 26.4706V30.816L34.48 29.1125V24.1453L39.0289 26.4706Z" fill="#101633"/>
<path d="M46.4151 30.344V33.6997L43.4061 32.5774V28.7936L46.4151 30.344Z" fill="#101633"/>
<path d="M39.0289 33.4784V37.5071L34.48 36.4263V31.9173L39.0289 33.4784Z" fill="#101633"/>
<path d="M46.3049 36.2016V39.4759L43.296 38.7621V35.1712L45.5399 35.9469H45.5505L46.3049 36.2016Z" fill="#101633"/>
<defs>
<linearGradient id="paint0_linear_1_32" x1="43.838" y1="19.9735" x2="43.838" y2="47.3276" gradientUnits="userSpaceOnUse">
<stop stop-color="#F14424"/>
<stop offset="1" stop-color="#FD8F03"/>
</linearGradient>
</defs>
</svg>
