<svg width="191" height="62" viewBox="0 0 191 62" fill="none" xmlns="http://www.w3.org/2000/svg">
<path d="M70.7265 44V27.305H75.3015V44H70.7265ZM72.7815 24.89C72.0415 24.89 71.4165 24.66 70.9065 24.2C70.3965 23.74 70.1415 23.14 70.1415 22.4C70.1415 21.9 70.2765 21.445 70.5465 21.035C70.8265 20.615 71.1865 20.28 71.6265 20.03C72.0765 19.78 72.5565 19.655 73.0665 19.655C73.8865 19.655 74.5265 19.89 74.9865 20.36C75.4565 20.82 75.6915 21.415 75.6915 22.145C75.6915 22.905 75.4015 23.555 74.8215 24.095C74.2515 24.625 73.5715 24.89 72.7815 24.89ZM79.4701 44V27.305H83.6251L83.7001 29.18C84.0801 28.86 84.5651 28.54 85.1551 28.22C85.7451 27.89 86.3951 27.615 87.1051 27.395C87.8251 27.175 88.5501 27.06 89.2801 27.05C91.0201 27.01 92.3001 27.475 93.1201 28.445C93.9401 29.405 94.3501 31.095 94.3501 33.515V44H89.7601V34.16C89.7601 32.86 89.5901 31.95 89.2501 31.43C88.9101 30.91 88.2451 30.67 87.2551 30.71C86.9551 30.72 86.6151 30.775 86.2351 30.875C85.8651 30.965 85.4851 31.105 85.0951 31.295C84.7151 31.475 84.3601 31.7 84.0301 31.97V44H79.4701ZM108.705 44V41.915L108.375 41.69V30.365L108.495 30.26L108.375 26.03V19.625H112.905V44H108.705ZM103.785 44.24C102.605 44.24 101.515 43.95 100.515 43.37C99.5253 42.78 98.7253 41.895 98.1153 40.715C97.5053 39.535 97.2003 38.04 97.2003 36.23C97.2003 34.38 97.5503 32.77 98.2503 31.4C98.9503 30.02 99.9303 28.955 101.19 28.205C102.45 27.455 103.93 27.08 105.63 27.08C106.66 27.08 107.505 27.19 108.165 27.41C108.835 27.63 109.265 27.815 109.455 27.965L108.39 30.86C108.14 30.65 107.785 30.505 107.325 30.425C106.865 30.335 106.34 30.29 105.75 30.29C105.03 30.29 104.38 30.5 103.8 30.92C103.23 31.33 102.775 31.955 102.435 32.795C102.105 33.625 101.94 34.665 101.94 35.915C101.92 37.645 102.205 38.885 102.795 39.635C103.395 40.385 104.215 40.76 105.255 40.76C105.895 40.76 106.495 40.65 107.055 40.43C107.625 40.21 108.07 39.985 108.39 39.755L108.945 42.035C108.715 42.285 108.385 42.585 107.955 42.935C107.525 43.275 106.97 43.58 106.29 43.85C105.61 44.11 104.775 44.24 103.785 44.24ZM122.041 44.24C120.881 44.24 119.941 44.07 119.221 43.73C118.511 43.38 117.971 42.885 117.601 42.245C117.231 41.605 116.981 40.85 116.851 39.98C116.721 39.11 116.656 38.15 116.656 37.1V27.29H121.216V37.16C121.216 38.21 121.306 38.995 121.486 39.515C121.666 40.035 121.941 40.38 122.311 40.55C122.691 40.72 123.176 40.805 123.766 40.805C124.126 40.805 124.496 40.755 124.876 40.655C125.256 40.555 125.606 40.435 125.926 40.295C126.246 40.145 126.491 40.005 126.661 39.875V27.29H131.236V44.24H128.326C127.936 44.24 127.631 44.18 127.411 44.06C127.201 43.94 127.096 43.66 127.096 43.22V42.11L127.186 42.545C126.776 42.865 126.276 43.155 125.686 43.415C125.106 43.665 124.496 43.865 123.856 44.015C123.216 44.165 122.611 44.24 122.041 44.24ZM134.396 42.935L134.906 39.71C135.066 39.84 135.391 40.01 135.881 40.22C136.371 40.43 136.956 40.625 137.636 40.805C138.316 40.975 139.016 41.06 139.736 41.06C140.646 41.07 141.316 40.95 141.746 40.7C142.176 40.44 142.391 40.055 142.391 39.545C142.391 39.195 142.246 38.89 141.956 38.63C141.676 38.37 141.291 38.13 140.801 37.91C140.311 37.68 139.766 37.445 139.166 37.205C138.086 36.775 137.191 36.305 136.481 35.795C135.781 35.285 135.256 34.705 134.906 34.055C134.566 33.395 134.401 32.625 134.411 31.745C134.421 30.705 134.721 29.84 135.311 29.15C135.911 28.46 136.706 27.945 137.696 27.605C138.696 27.255 139.801 27.08 141.011 27.08C142.241 27.08 143.286 27.195 144.146 27.425C145.016 27.645 145.611 27.85 145.931 28.04L145.436 31.325C145.246 31.165 144.946 30.995 144.536 30.815C144.126 30.635 143.661 30.49 143.141 30.38C142.631 30.26 142.111 30.2 141.581 30.2C140.611 30.2 139.901 30.32 139.451 30.56C139.011 30.79 138.791 31.125 138.791 31.565C138.781 32.135 139.001 32.56 139.451 32.84C139.911 33.11 140.546 33.415 141.356 33.755C142.556 34.245 143.561 34.735 144.371 35.225C145.191 35.705 145.806 36.26 146.216 36.89C146.636 37.51 146.846 38.27 146.846 39.17C146.846 40.83 146.251 42.09 145.061 42.95C143.871 43.81 142.266 44.24 140.246 44.24C139.396 44.24 138.576 44.17 137.786 44.03C137.006 43.9 136.316 43.735 135.716 43.535C135.126 43.335 134.686 43.135 134.396 42.935ZM154.781 44.24C153.761 44.24 152.916 44.075 152.246 43.745C151.586 43.405 151.091 42.87 150.761 42.14C150.441 41.41 150.281 40.445 150.281 39.245V30.425H148.256V27.98C148.996 27.77 149.586 27.57 150.026 27.38C150.476 27.19 150.801 26.86 151.001 26.39C151.101 26.16 151.206 25.89 151.316 25.58C151.436 25.27 151.561 24.935 151.691 24.575C151.821 24.215 151.956 23.85 152.096 23.48H154.856V27.29H159.341V30.425H154.856V37.31C154.856 38.37 154.911 39.145 155.021 39.635C155.131 40.115 155.321 40.425 155.591 40.565C155.861 40.695 156.251 40.76 156.761 40.76C157.021 40.76 157.321 40.73 157.661 40.67C158.001 40.6 158.326 40.515 158.636 40.415C158.946 40.315 159.186 40.21 159.356 40.1L159.956 42.665C159.686 42.905 159.281 43.15 158.741 43.4C158.201 43.64 157.586 43.84 156.896 44C156.206 44.16 155.501 44.24 154.781 44.24ZM166.566 33.11L166.356 29.9C166.536 29.42 166.866 28.965 167.346 28.535C167.826 28.095 168.396 27.74 169.056 27.47C169.716 27.19 170.411 27.05 171.141 27.05C171.441 27.05 171.716 27.065 171.966 27.095C172.226 27.125 172.416 27.175 172.536 27.245V31.7C172.396 31.61 172.181 31.52 171.891 31.43C171.601 31.34 171.161 31.295 170.571 31.295C169.851 31.295 169.231 31.4 168.711 31.61C168.191 31.81 167.751 32.055 167.391 32.345C167.041 32.625 166.766 32.88 166.566 33.11ZM162.261 44V27.305H166.221L166.476 29.915L166.836 30.71V44H162.261ZM175.101 44V27.305H179.676V44H175.101ZM177.156 24.89C176.416 24.89 175.791 24.66 175.281 24.2C174.771 23.74 174.516 23.14 174.516 22.4C174.516 21.9 174.651 21.445 174.921 21.035C175.201 20.615 175.561 20.28 176.001 20.03C176.451 19.78 176.931 19.655 177.441 19.655C178.261 19.655 178.901 19.89 179.361 20.36C179.831 20.82 180.066 21.415 180.066 22.145C180.066 22.905 179.776 23.555 179.196 24.095C178.626 24.625 177.946 24.89 177.156 24.89ZM183.814 44V19.625H188.404V44H183.814Z" fill="#101633"/>
<circle cx="31" cy="31" r="30" fill="url(#paint0_linear_1_4)" stroke="white" stroke-opacity="0.1"/>
<mask id="mask0_1_4" style="mask-type:alpha" maskUnits="userSpaceOnUse" x="1" y="1" width="60" height="60">
<circle cx="31" cy="31" r="30" fill="#232323"/>
</mask>
<g mask="url(#mask0_1_4)">
<path d="M14.6923 61.3298L14.8917 44.2381L21.6535 40.9744L21.4907 35.1657C21.4907 34.3909 21.052 33.7479 20.4709 33.5542L20.3179 20.0501C20.314 19.7772 20.2024 19.5168 20.0075 19.3258C19.8125 19.1348 19.5499 19.0286 19.2769 19.0303H15.3401C15.0672 19.0284 14.8046 19.1345 14.6097 19.3256C14.4148 19.5167 14.3034 19.7772 14.3 20.0501L14.147 33.5542C13.565 33.7479 13.1369 34.3909 13.1272 35.1657L12.4427 61.3298H14.6923Z" fill="url(#paint1_linear_1_4)"/>
<path d="M43.5488 61.3234V33.9694L50.6475 37.601L54.7479 39.7016L57.7569 41.2521L61.8475 43.343L67.3648 46.1688L67.3347 48.9637L67.1939 61.3234H68.5149L68.6508 49.6368L68.7013 45.363L61.8475 41.8544L57.7569 39.7529L54.7479 38.213L50.6475 36.1116L43.5488 32.4808L42.2742 31.828L41.9983 31.9607L21.2824 41.9667L15.5404 44.7404L15.3507 61.3234H43.5488Z" fill="#101633"/>
<path d="M35.0112 34.4716L34.8737 30.8139C34.8655 30.0432 34.4342 29.4002 33.8523 29.2073L33.6968 15.7041C33.6929 15.4309 33.5818 15.1702 33.3873 14.9783C33.1928 14.7864 32.9307 14.6787 32.6575 14.6786H28.7207C28.4475 14.6787 28.1853 14.7864 27.9908 14.9783C27.7964 15.1702 27.6852 15.4309 27.6813 15.7041L27.5259 29.2073C26.9439 29.4002 26.5126 30.0432 26.5044 30.8139L26.2082 38.7233L35.0112 34.4716Z" fill="url(#paint2_linear_1_4)"/>
<path d="M67.5751 61.3276L67.716 48.9678L67.7461 46.1729L62.2287 43.3471L58.1381 41.2562L55.1291 39.7057L51.0288 37.6051L43.93 33.9735V61.3276H67.5751Z" fill="url(#paint3_linear_1_4)"/>
<path d="M51.0289 40.4706V44.816L46.48 43.1125V38.1453L51.0289 40.4706Z" fill="#101633"/>
<path d="M58.4151 44.344V47.6997L55.4061 46.5774V42.7936L58.4151 44.344Z" fill="#101633"/>
<path d="M51.0289 47.4784V51.5071L46.48 50.4263V45.9173L51.0289 47.4784Z" fill="#101633"/>
<path d="M58.3049 50.2016V53.4759L55.296 52.7621V49.1712L57.5399 49.9469H57.5505L58.3049 50.2016Z" fill="#101633"/>
</g>
<defs>
<linearGradient id="paint0_linear_1_4" x1="31" y1="1" x2="31" y2="61" gradientUnits="userSpaceOnUse">
<stop stop-color="#F14424"/>
<stop offset="1" stop-color="#FD8F03"/>
</linearGradient>
<linearGradient id="paint1_linear_1_4" x1="17.0481" y1="19.0303" x2="17.0481" y2="61.3298" gradientUnits="userSpaceOnUse">
<stop stop-color="#F5F5F5"/>
<stop offset="0.31" stop-color="#101633"/>
</linearGradient>
<linearGradient id="paint2_linear_1_4" x1="30.6097" y1="14.6786" x2="30.6097" y2="38.7233" gradientUnits="userSpaceOnUse">
<stop stop-color="#F5F5F5"/>
<stop offset="0.48" stop-color="#101633"/>
</linearGradient>
<linearGradient id="paint3_linear_1_4" x1="55.838" y1="33.9735" x2="55.838" y2="61.3276" gradientUnits="userSpaceOnUse">
<stop stop-color="#F14424"/>
<stop offset="1" stop-color="#FD8F03"/>
</linearGradient>
</defs>
</svg>
