<svg width="191" height="62" viewBox="0 0 191 62" fill="none" xmlns="http://www.w3.org/2000/svg">
<path d="M70.7265 42V25.305H75.3015V42H70.7265ZM72.7815 22.89C72.0415 22.89 71.4165 22.66 70.9065 22.2C70.3965 21.74 70.1415 21.14 70.1415 20.4C70.1415 19.9 70.2765 19.445 70.5465 19.035C70.8265 18.615 71.1865 18.28 71.6265 18.03C72.0765 17.78 72.5565 17.655 73.0665 17.655C73.8865 17.655 74.5265 17.89 74.9865 18.36C75.4565 18.82 75.6915 19.415 75.6915 20.145C75.6915 20.905 75.4015 21.555 74.8215 22.095C74.2515 22.625 73.5715 22.89 72.7815 22.89ZM79.4701 42V25.305H83.6251L83.7001 27.18C84.0801 26.86 84.5651 26.54 85.1551 26.22C85.7451 25.89 86.3951 25.615 87.1051 25.395C87.8251 25.175 88.5501 25.06 89.2801 25.05C91.0201 25.01 92.3001 25.475 93.1201 26.445C93.9401 27.405 94.3501 29.095 94.3501 31.515V42H89.7601V32.16C89.7601 30.86 89.5901 29.95 89.2501 29.43C88.9101 28.91 88.2451 28.67 87.2551 28.71C86.9551 28.72 86.6151 28.775 86.2351 28.875C85.8651 28.965 85.4851 29.105 85.0951 29.295C84.7151 29.475 84.3601 29.7 84.0301 29.97V42H79.4701ZM108.705 42V39.915L108.375 39.69V28.365L108.495 28.26L108.375 24.03V17.625H112.905V42H108.705ZM103.785 42.24C102.605 42.24 101.515 41.95 100.515 41.37C99.5253 40.78 98.7253 39.895 98.1153 38.715C97.5053 37.535 97.2003 36.04 97.2003 34.23C97.2003 32.38 97.5503 30.77 98.2503 29.4C98.9503 28.02 99.9303 26.955 101.19 26.205C102.45 25.455 103.93 25.08 105.63 25.08C106.66 25.08 107.505 25.19 108.165 25.41C108.835 25.63 109.265 25.815 109.455 25.965L108.39 28.86C108.14 28.65 107.785 28.505 107.325 28.425C106.865 28.335 106.34 28.29 105.75 28.29C105.03 28.29 104.38 28.5 103.8 28.92C103.23 29.33 102.775 29.955 102.435 30.795C102.105 31.625 101.94 32.665 101.94 33.915C101.92 35.645 102.205 36.885 102.795 37.635C103.395 38.385 104.215 38.76 105.255 38.76C105.895 38.76 106.495 38.65 107.055 38.43C107.625 38.21 108.07 37.985 108.39 37.755L108.945 40.035C108.715 40.285 108.385 40.585 107.955 40.935C107.525 41.275 106.97 41.58 106.29 41.85C105.61 42.11 104.775 42.24 103.785 42.24ZM122.041 42.24C120.881 42.24 119.941 42.07 119.221 41.73C118.511 41.38 117.971 40.885 117.601 40.245C117.231 39.605 116.981 38.85 116.851 37.98C116.721 37.11 116.656 36.15 116.656 35.1V25.29H121.216V35.16C121.216 36.21 121.306 36.995 121.486 37.515C121.666 38.035 121.941 38.38 122.311 38.55C122.691 38.72 123.176 38.805 123.766 38.805C124.126 38.805 124.496 38.755 124.876 38.655C125.256 38.555 125.606 38.435 125.926 38.295C126.246 38.145 126.491 38.005 126.661 37.875V25.29H131.236V42.24H128.326C127.936 42.24 127.631 42.18 127.411 42.06C127.201 41.94 127.096 41.66 127.096 41.22V40.11L127.186 40.545C126.776 40.865 126.276 41.155 125.686 41.415C125.106 41.665 124.496 41.865 123.856 42.015C123.216 42.165 122.611 42.24 122.041 42.24ZM134.396 40.935L134.906 37.71C135.066 37.84 135.391 38.01 135.881 38.22C136.371 38.43 136.956 38.625 137.636 38.805C138.316 38.975 139.016 39.06 139.736 39.06C140.646 39.07 141.316 38.95 141.746 38.7C142.176 38.44 142.391 38.055 142.391 37.545C142.391 37.195 142.246 36.89 141.956 36.63C141.676 36.37 141.291 36.13 140.801 35.91C140.311 35.68 139.766 35.445 139.166 35.205C138.086 34.775 137.191 34.305 136.481 33.795C135.781 33.285 135.256 32.705 134.906 32.055C134.566 31.395 134.401 30.625 134.411 29.745C134.421 28.705 134.721 27.84 135.311 27.15C135.911 26.46 136.706 25.945 137.696 25.605C138.696 25.255 139.801 25.08 141.011 25.08C142.241 25.08 143.286 25.195 144.146 25.425C145.016 25.645 145.611 25.85 145.931 26.04L145.436 29.325C145.246 29.165 144.946 28.995 144.536 28.815C144.126 28.635 143.661 28.49 143.141 28.38C142.631 28.26 142.111 28.2 141.581 28.2C140.611 28.2 139.901 28.32 139.451 28.56C139.011 28.79 138.791 29.125 138.791 29.565C138.781 30.135 139.001 30.56 139.451 30.84C139.911 31.11 140.546 31.415 141.356 31.755C142.556 32.245 143.561 32.735 144.371 33.225C145.191 33.705 145.806 34.26 146.216 34.89C146.636 35.51 146.846 36.27 146.846 37.17C146.846 38.83 146.251 40.09 145.061 40.95C143.871 41.81 142.266 42.24 140.246 42.24C139.396 42.24 138.576 42.17 137.786 42.03C137.006 41.9 136.316 41.735 135.716 41.535C135.126 41.335 134.686 41.135 134.396 40.935ZM154.781 42.24C153.761 42.24 152.916 42.075 152.246 41.745C151.586 41.405 151.091 40.87 150.761 40.14C150.441 39.41 150.281 38.445 150.281 37.245V28.425H148.256V25.98C148.996 25.77 149.586 25.57 150.026 25.38C150.476 25.19 150.801 24.86 151.001 24.39C151.101 24.16 151.206 23.89 151.316 23.58C151.436 23.27 151.561 22.935 151.691 22.575C151.821 22.215 151.956 21.85 152.096 21.48H154.856V25.29H159.341V28.425H154.856V35.31C154.856 36.37 154.911 37.145 155.021 37.635C155.131 38.115 155.321 38.425 155.591 38.565C155.861 38.695 156.251 38.76 156.761 38.76C157.021 38.76 157.321 38.73 157.661 38.67C158.001 38.6 158.326 38.515 158.636 38.415C158.946 38.315 159.186 38.21 159.356 38.1L159.956 40.665C159.686 40.905 159.281 41.15 158.741 41.4C158.201 41.64 157.586 41.84 156.896 42C156.206 42.16 155.501 42.24 154.781 42.24ZM166.566 31.11L166.356 27.9C166.536 27.42 166.866 26.965 167.346 26.535C167.826 26.095 168.396 25.74 169.056 25.47C169.716 25.19 170.411 25.05 171.141 25.05C171.441 25.05 171.716 25.065 171.966 25.095C172.226 25.125 172.416 25.175 172.536 25.245V29.7C172.396 29.61 172.181 29.52 171.891 29.43C171.601 29.34 171.161 29.295 170.571 29.295C169.851 29.295 169.231 29.4 168.711 29.61C168.191 29.81 167.751 30.055 167.391 30.345C167.041 30.625 166.766 30.88 166.566 31.11ZM162.261 42V25.305H166.221L166.476 27.915L166.836 28.71V42H162.261ZM175.101 42V25.305H179.676V42H175.101ZM177.156 22.89C176.416 22.89 175.791 22.66 175.281 22.2C174.771 21.74 174.516 21.14 174.516 20.4C174.516 19.9 174.651 19.445 174.921 19.035C175.201 18.615 175.561 18.28 176.001 18.03C176.451 17.78 176.931 17.655 177.441 17.655C178.261 17.655 178.901 17.89 179.361 18.36C179.831 18.82 180.066 19.415 180.066 20.145C180.066 20.905 179.776 21.555 179.196 22.095C178.626 22.625 177.946 22.89 177.156 22.89ZM183.814 42V17.625H188.404V42H183.814Z" fill="white"/>
<circle cx="31" cy="31" r="30" fill="white" stroke="white" stroke-opacity="0.1"/>
<mask id="mask0_1_27" style="mask-type:alpha" maskUnits="userSpaceOnUse" x="1" y="1" width="60" height="60">
<circle cx="31" cy="31" r="30" fill="#232323"/>
</mask>
<g mask="url(#mask0_1_27)">
<path d="M14.6923 61.3298L14.8917 44.2381L21.6535 40.9744L21.4907 35.1657C21.4907 34.3909 21.052 33.7479 20.4709 33.5542L20.3179 20.0501C20.314 19.7772 20.2024 19.5168 20.0074 19.3258C19.8125 19.1348 19.5499 19.0286 19.2769 19.0303H15.3401C15.0672 19.0284 14.8046 19.1345 14.6097 19.3256C14.4147 19.5167 14.3034 19.7772 14.3 20.0501L14.147 33.5542C13.565 33.7479 13.1369 34.3909 13.1272 35.1657L12.4427 61.3298H14.6923Z" fill="#101633"/>
<path d="M43.5488 61.3234V33.9694L50.6475 37.601L54.7479 39.7016L57.7569 41.2521L61.8475 43.343L67.3649 46.1688L67.3347 48.9637L67.1939 61.3234H68.5149L68.6508 49.6368L68.7013 45.363L61.8475 41.8544L57.7569 39.7529L54.7479 38.213L50.6475 36.1116L43.5488 32.4808L42.2742 31.828L41.9983 31.9607L21.2824 41.9667L15.5404 44.7404L15.3507 61.3234H43.5488Z" fill="#101633"/>
<path d="M35.0112 34.4716L34.8737 30.8139C34.8655 30.0432 34.4342 29.4002 33.8522 29.2073L33.6968 15.7041C33.6929 15.4309 33.5818 15.1702 33.3873 14.9783C33.1928 14.7864 32.9306 14.6787 32.6574 14.6786H28.7207C28.4474 14.6787 28.1853 14.7864 27.9908 14.9783C27.7963 15.1702 27.6852 15.4309 27.6813 15.7041L27.5259 29.2073C26.9439 29.4002 26.5126 30.0432 26.5044 30.8139L26.2082 38.7233L35.0112 34.4716Z" fill="#101633"/>
<path d="M67.5751 61.3276L67.7159 48.9678L67.7461 46.1729L62.2287 43.3471L58.1381 41.2562L55.1291 39.7057L51.0287 37.6051L43.93 33.9735V61.3276H67.5751Z" fill="url(#paint0_linear_1_27)"/>
<path d="M51.0289 40.4706V44.816L46.48 43.1125V38.1453L51.0289 40.4706Z" fill="#101633"/>
<path d="M58.4151 44.344V47.6997L55.4061 46.5774V42.7936L58.4151 44.344Z" fill="#101633"/>
<path d="M51.0289 47.4784V51.5071L46.48 50.4263V45.9173L51.0289 47.4784Z" fill="#101633"/>
<path d="M58.3049 50.2016V53.4759L55.296 52.7621V49.1712L57.5399 49.9469H57.5505L58.3049 50.2016Z" fill="#101633"/>
</g>
<defs>
<linearGradient id="paint0_linear_1_27" x1="55.838" y1="33.9735" x2="55.838" y2="61.3276" gradientUnits="userSpaceOnUse">
<stop stop-color="#F14424"/>
<stop offset="1" stop-color="#FD8F03"/>
</linearGradient>
</defs>
</svg>
